<svg width="23" height="22" viewBox="0 0 23 22" fill="none" xmlns="http://www.w3.org/2000/svg">
<g id="icn bx-star">
<path id="Vector" d="M6.03236 13.1308L4.66568 19.0488C4.62336 19.228 4.63607 19.4158 4.70214 19.5877C4.76821 19.7596 4.88457 19.9075 5.03603 20.0122C5.18749 20.1169 5.36701 20.1735 5.55114 20.1746C5.73526 20.1757 5.91544 20.1212 6.06813 20.0183L11.0625 16.6888L16.0568 20.0183C16.213 20.1221 16.3973 20.1755 16.5848 20.1714C16.7723 20.1673 16.954 20.1058 17.1056 19.9953C17.2571 19.8849 17.3712 19.7306 17.4324 19.5534C17.4937 19.3761 17.4992 19.1844 17.4483 19.0039L15.7706 13.1336L19.9312 9.38944C20.0645 9.26946 20.1596 9.11304 20.2049 8.93955C20.2502 8.76605 20.2437 8.58308 20.1861 8.41327C20.1285 8.24345 20.0224 8.09424 19.8809 7.98408C19.7395 7.87392 19.5688 7.80764 19.39 7.79345L14.1609 7.37703L11.8981 2.36801C11.8259 2.20672 11.7086 2.06976 11.5604 1.97366C11.4121 1.87755 11.2392 1.82642 11.0625 1.82642C10.8858 1.82642 10.7129 1.87755 10.5646 1.97366C10.4163 2.06976 10.299 2.20672 10.2269 2.36801L7.96405 7.37703L2.7349 7.79254C2.55921 7.80645 2.39125 7.87069 2.25111 7.97757C2.11097 8.08445 2.00459 8.22943 1.9447 8.39518C1.8848 8.56094 1.87393 8.74044 1.91338 8.91221C1.95283 9.08398 2.04092 9.24074 2.16714 9.36376L6.03236 13.1308ZM8.64923 9.16288C8.81295 9.14998 8.97019 9.09328 9.10445 8.99871C9.23872 8.90414 9.34508 8.77519 9.41237 8.62538L11.0625 4.97387L12.7126 8.62538C12.7799 8.77519 12.8862 8.90414 13.0205 8.99871C13.1548 9.09328 13.312 9.14998 13.4757 9.16288L17.119 9.45181L14.1187 12.1521C13.8582 12.387 13.7546 12.7484 13.8499 13.0859L14.9992 17.108L11.5725 14.8231C11.422 14.7222 11.245 14.6683 11.0638 14.6683C10.8827 14.6683 10.7057 14.7222 10.5552 14.8231L6.97436 17.2107L7.93746 13.0409C7.97277 12.8876 7.96803 12.7277 7.92369 12.5767C7.87936 12.4257 7.79692 12.2887 7.6843 12.1787L4.89774 9.4619L8.64923 9.16288Z" fill="#F3CD03"/>
</g>
</svg>
